<svg width="276" height="76" fill="none" xmlns="http://www.w3.org/2000/svg"><rect x=".928" y="1.145" width="274" height="74" rx="3.5" fill="#fff" stroke="#CECECE"/><path fill="#565D66" d="M21.932 31.582h26.84v13.123h-26.84zM163.197 36.645h13v3h-13zM182.189 36.645h13v3h-13zM202.037 36.645h13v3h-13zM221.885 36.645h13v3h-13z"/><path fill-rule="evenodd" clip-rule="evenodd" d="M256.954 39.001a4.403 4.403 0 00-.576-5.512 4.399 4.399 0 00-6.224 0c-1.712 1.712-1.712 4.504 0 6.224a4.402 4.402 0 005.152.784c.12.12.224.24.352.4.128.168.272.368.448.624l.161.228c.092.132.162.232.215.3.24.328.448.576.616.744.256.256.52.48.8.672.272.2.552.36.832.472a1.7 1.7 0 00.792.152.971.971 0 00.648-.288.971.971 0 00.288-.648c.024-.256-.032-.52-.144-.8a4.392 4.392 0 00-.472-.832 5.657 5.657 0 00-.672-.8 6.838 6.838 0 00-.752-.624 7.401 7.401 0 00-.312-.224l-.216-.152a10.227 10.227 0 01-.648-.472 1.774 1.774 0 01-.183-.155c-.035-.031-.069-.063-.105-.093zm-1.704-4.384a2.81 2.81 0 010 3.96 2.796 2.796 0 01-3.96 0 2.796 2.796 0 010-3.96 2.796 2.796 0 013.96 0z" fill="#565D66"/></svg>
